<?xml version="1.0" standalone="no"?>
<!DOCTYPE svg PUBLIC "-//W3C//DTD SVG 20010904//EN"
 "http://www.w3.org/TR/2001/REC-SVG-20010904/DTD/svg10.dtd">
<svg version="1.0" xmlns="http://www.w3.org/2000/svg"
 width="260.000000pt" height="260.000000pt" viewBox="0 0 260.000000 260.000000"
 preserveAspectRatio="xMidYMid meet">
<metadata>
Created by potrace 1.11, written by Peter Selinger 2001-2013
</metadata>
<g transform="translate(0.000000,260.000000) scale(0.100000,-0.100000)"
fill="#000000" stroke="none">
<path d="M70 2582 c-20 -10 -42 -32 -52 -52 -17 -33 -18 -112 -18 -1230 0
-1118 1 -1197 18 -1230 10 -20 32 -42 52 -52 33 -17 112 -18 1228 -18 1313 0
1242 -3 1282 62 20 33 20 47 20 1233 0 1122 -1 1202 -18 1235 -10 20 -32 42
-52 52 -33 17 -112 18 -1230 18 -1118 0 -1197 -1 -1230 -18z m1895 -662 c46
-42 55 -77 55 -222 0 -147 -10 -184 -63 -222 -23 -17 -47 -22 -127 -24 l-98
-4 -4 -146 c-3 -106 -9 -157 -20 -184 -23 -53 -92 -123 -146 -150 -46 -22 -55
-23 -337 -23 -274 0 -292 1 -335 21 -59 28 -117 86 -144 143 -20 44 -21 63
-24 444 l-3 397 610 -2 609 -3 27 -25z m-95 -1200 l0 -70 -647 0 -648 0 0 70
0 70 648 0 647 0 0 -70z"/>
<path d="M1730 1700 l0 -110 75 0 75 0 0 110 0 110 -75 0 -75 0 0 -110z"/>
</g>
</svg>
