<svg xmlns="http://www.w3.org/2000/svg" width="26" height="26" viewBox="0 0 26 26">
    <path fill="#273B72" fill-rule="nonzero" d="M13.111.025C6.108.025.41 5.723.41 12.727c0 7.003 5.698 12.701 12.701 12.701 7.004 0 12.703-5.697 12.703-12.701C25.814 5.723 20.115.025 13.11.025zm11.604 12.702c0 .222-.02.439-.033.659-.082-.207-.205-.476-.235-.591-.043-.176-.306-.788-.306-.788s-.262-.35-.437-.438c-.174-.088-.306-.307-.612-.48-.307-.176-.437-.263-.699-.263-.263 0-.524-.35-.832-.526-.306-.173-.35-.086-.35-.086s.35.524.35.655c0 .13.393.35.788.262 0 0 .262.481.393.612.13.13-.044.263-.306.438-.262.173-.219.13-.351.261-.131.131-.568.352-.7.438-.13.087-.655.35-.917.087-.128-.127-.088-.393-.175-.569-.087-.174-1.005-1.53-1.443-2.141-.076-.108-.263-.44-.393-.525-.13-.089.307-.089.307-.089s0-.306-.044-.524c-.045-.219.044-.525.044-.525s-.438.262-.57.35c-.13.088-.262-.174-.436-.394-.175-.217-.35-.481-.394-.7-.044-.218.22-.306.22-.306l.392-.217s.481-.087.788-.044c.306.044.786.088.786.088s.131-.307-.044-.438c-.174-.13-.569-.35-.744-.306-.174.043.087-.218.305-.393l-.484-.088s-.44.219-.572.263c-.131.043-.359.13-.535.35-.173.218.07.524-.104.612a2.73 2.73 0 0 1-.424.173c-.131.044-.547 0-.547 0-.452 0-.163.413-.045.559l-.35-.427-.259-.611s-.373-.262-.548-.349c-.175-.088-.713-.394-.713-.394l.037.394.507.513.045.012.263.35-.582.043v-.346c-.548-.133-.405-.269-.467-.311-.13-.087-.434-.307-.434-.307s-.514.088-.646.132c-.132.044-.169.175-.43.262a.824.824 0 0 0-.468.35c-.087.13-.373.524-.546.699-.175.176-.5.13-.63.13-.133 0-.764-.174-.764-.174v-.741s.085-.416.042-.547l.383-.065.64-.132.187-.132.269-.35s-.302-.218-.084-.524c.104-.147.482-.174.657-.305.174-.131.438-.22.438-.22s.307-.26.613-.568c0 0 .218-.131.48-.22 0 0 .744.657.876.657s.612-.306.612-.306.131-.392.088-.524c-.044-.131-.262-.569-.262-.569s-.131.22-.262.394c-.131.175-.219.394-.219.394s-.612-.043-.655-.173c-.045-.132-.131-.348-.176-.478-.042-.132-.393-.128-.654-.04-.263.088.042-.471.042-.471s.264-.33.438-.33.57-.224.742-.267c.176-.044.702-.244.92-.244.218 0 .48.094.612.094h.656l.917-.074s.788.292.525.467c0 0 .307.19.438.32.123.124.44-.113.622-.215 3.272 2.053 5.46 5.685 5.46 9.827zM3.852 5.884c0 .175-.239.217 0 .656.304.569.043.831.043.831s-.745.525-.875.613c-.131.088-.481.568-.263.436.219-.13.48-.261.263.088-.22.35-.613.918-.7 1.138-.087.22-.524.743-.524 1.006s-.175.788-.131 1.007c.03.152-.067.601-.144.786.06-2.458.887-4.724 2.253-6.577a.354.354 0 0 1 .078.016zm1.404-1.676A11.624 11.624 0 0 1 8.962 1.9c-.136.175-.301.354-.301.354s-.306-.001-.875.612c-.568.613-.437.438-.568.612-.13.174-.088.218-.394.438-.305.218-.437.48-.437.48l-.481.175-.393-.174s-.352.131-.308-.044c.013-.047.032-.095.051-.146zm5.242 1.02l-.174-.262.174-.394.421.169v-.78l.403-.219.334.48.515.57-.342.262-.91.175v-.464l-.421.463zm5.686 4.11c.102-.08.436.131.436.131s1.093.22 1.268.35c.176.132.481.22.57.351.087.131.392.525.435.656.045.13.264.613.308.787.043.175.174.612.305.831.131.22.875 1.18 1.137 1.618l.79-.13s-.09.392-.177.524c-.087.13-.35.48-.48.655-.132.175-.306.438-.569.656-.261.218-.263.436-.393.612-.131.175-.307.569-.307.569s.088.875.131 1.05c.043.174-.306.655-.306.655l-.394.394-.527.699.043.655s-.398.308-.618.481c-.217.174-.183.306-.358.482-.174.174-.858.48-1.033.524-.174.044-1.14.175-1.14.175v-.392l-.019-.438s-.132-.524-.264-.7c-.132-.174-.075-.438-.293-.656-.22-.218-.3-.392-.344-.525-.044-.13.048-.524.048-.524s.176-.481.263-.656c.088-.175.001-.436-.087-.612s-.13-.613-.13-.743c0-.131-.351-.35-.482-.482-.13-.13-.087-.306-.087-.48 0-.176-.13-.569-.088-.875.044-.306-.393-.088-.655 0-.263.087-.437-.088-.437-.351s-.48-.043-.787.13c-.308.176-.656.176-1.008.308-.349.13-.522-.131-.522-.131s-.308-.262-.525-.394c-.22-.13-.438-.393-.614-.611-.174-.22-.612-.876-.655-1.137-.043-.264 0-.44 0-.745 0-.306 0-.48.043-.7.044-.218.175-.481.307-.7.131-.219.612-.48.742-.568.131-.087.438-.349.438-.525 0-.174.176-.261.262-.437.089-.175.394-.612.788-.437 0 0 .349-.043.48-.087.13-.044.48-.174.653-.262.175-.087.61-.129.61-.129s.345.138.476.138c.13 0 .557-.077.557-.077s.198.634.198.766.13.262.35.35c.216.088 1.223.308 1.66-.043zm5.028 8.572c0 .131-.044.482-.087.657-.046.175-.132.481-.175.654-.044.176-.263.526-.393.613-.13.088-.35.351-.48.394-.131.044-.22-.307-.176-.481.045-.175.262-.656.262-.656s.044-.262.087-.437c.045-.174.57-.393.57-.393l.35-.656c-.002-.001.042.175.042.305zM1.807 15.305a.644.644 0 0 1 .25.157c.166.143.263.217.482.306.218.088.306.218.568.35.263.131.176.044.525.437.35.393.307.393.394.612.086.22.218.437.306.57.088.13.35.217.48.305.132.088.35.175.481.175.132 0 .526.394.744.437.22.044.22.482.22.482l-.22.611-.175.656.175.524s-.263.22-.436.22c-.162 0-.216.102-.393.054a11.593 11.593 0 0 1-3.401-5.896z"/>
</svg>
